<?xml version="1.0" encoding="UTF-8"?>
<svg id="Camada_2" data-name="Camada 2" xmlns="http://www.w3.org/2000/svg" viewBox="0 0 892 326.85">
  <defs>
    <style>
      .cls-1 {
        fill: #ff4500;
      }
    </style>
  </defs>
  <g id="Camada_1-2" data-name="Camada 1">
    <g>
      <g>
        <path class="cls-1" d="M473.09,112.13c-4.94-2.96-11.12-4.45-18.53-4.45-3.33,0-6.7.49-10.1,1.48-3.4.99-6.64,2.44-9.73,4.35-3.09,1.92-5.87,4.08-8.34,6.48-2.16,2.11-3.87,4.44-5.18,6.97-1.24-3.43-2.81-6.43-4.73-8.91-2.78-3.58-6.24-6.21-10.37-7.87-4.14-1.67-8.86-2.5-14.17-2.5-3.58,0-7.1.59-10.56,1.76-3.46,1.17-6.73,2.78-9.82,4.82-3.09,2.04-5.74,4.45-7.97,7.23-.5.62-.96,1.26-1.4,1.91l-.26-14.04h-22.42v97.63h22.97v-58.54c0-2.96.56-5.68,1.67-8.15,1.11-2.47,2.65-4.63,4.63-6.48,1.97-1.85,4.32-3.3,7.04-4.35,2.71-1.05,5.62-1.57,8.71-1.57,3.71,0,6.85.83,9.45,2.5,2.59,1.67,4.57,4.08,5.93,7.23,1.36,3.15,2.04,7.07,2.04,11.76v57.62h22.97v-58.36c0-2.97.56-5.68,1.67-8.15,1.11-2.47,2.65-4.66,4.63-6.58,1.97-1.91,4.35-3.4,7.13-4.45,2.78-1.05,5.71-1.57,8.8-1.57,3.95,0,7.25.77,9.91,2.31,2.65,1.55,4.63,3.92,5.93,7.13,1.3,3.21,1.95,7.29,1.95,12.23v57.43h22.97v-58.91c0-8.89-1.24-16.36-3.7-22.42-2.47-6.05-6.18-10.56-11.12-13.52Z"/>
        <path class="cls-1" d="M575.54,123.11c-1.89-2.82-4.16-5.39-6.85-7.65-3.09-2.59-6.67-4.6-10.75-6.02-4.08-1.42-8.58-2.13-13.52-2.13-8.52,0-16.18,2.16-22.97,6.48-6.79,4.32-12.17,10.31-16.12,17.97-3.96,7.66-5.93,16.37-5.93,26.12s1.97,18.47,5.93,26.12c3.95,7.66,9.2,13.71,15.75,18.16,6.55,4.45,13.83,6.67,21.86,6.67,4.69,0,9.11-.74,13.25-2.22,4.14-1.48,7.9-3.43,11.3-5.84,3.09-2.19,5.7-4.71,7.87-7.52v13.73h23.16v-97.63h-22.97v13.76ZM563.31,184.75c-4.08,2.59-8.77,3.89-14.08,3.89s-9.98-1.3-13.99-3.89c-4.01-2.59-7.13-6.21-9.35-10.84-2.22-4.63-3.33-9.97-3.33-16.02s1.11-11.18,3.33-15.75c2.22-4.57,5.34-8.15,9.35-10.74,4.01-2.6,8.68-3.89,13.99-3.89s10,1.3,14.08,3.89c4.08,2.59,7.25,6.18,9.54,10.74,2.28,4.57,3.43,9.82,3.43,15.75s-1.14,11.39-3.43,16.02c-2.29,4.63-5.47,8.25-9.54,10.84Z"/>
        <polygon class="cls-1" points="651.31 84.53 628.52 84.53 628.52 109.35 609.26 109.35 609.26 130.47 628.52 130.47 628.52 206.98 651.31 206.98 651.31 130.47 672.61 130.47 672.61 109.35 651.31 109.35 651.31 84.53"/>
        <path class="cls-1" d="M735.97,107.31c-4.82,0-9.42,1.14-13.8,3.43-4.39,2.29-8.24,5.4-11.58,9.36-1.58,1.88-2.92,3.87-4.06,5.97l-.2-16.71h-22.42v97.63h22.97v-52.06c0-3.46.58-6.58,1.76-9.36,1.17-2.78,2.81-5.22,4.91-7.32,2.1-2.1,4.54-3.73,7.32-4.91,2.78-1.17,5.71-1.76,8.8-1.76,1.97,0,3.95.25,5.93.74,1.97.49,3.64,1.11,5,1.85l6.11-25.01c-1.24-.49-2.81-.93-4.72-1.3-1.92-.37-3.92-.56-6.02-.56Z"/>
        <rect class="cls-1" x="756.53" y="109.35" width="22.79" height="97.63"/>
        <path class="cls-1" d="M767.65,71.28c-4.45,0-7.97,1.24-10.56,3.7-2.59,2.47-3.89,5.68-3.89,9.63,0,4.2,1.26,7.44,3.8,9.73,2.53,2.29,6.08,3.43,10.65,3.43s8.15-1.23,10.75-3.71c2.59-2.47,3.89-5.62,3.89-9.45,0-4.32-1.27-7.62-3.8-9.91-2.53-2.28-6.15-3.43-10.84-3.43Z"/>
        <polygon class="cls-1" points="891.11 206.98 854.05 157.51 888.15 109.35 861.28 109.35 841.89 141.09 818.49 109.35 790.33 109.35 826.97 157.64 790.15 206.98 817.01 206.98 839.36 174.3 863.51 206.98 891.11 206.98"/>
      </g>
      <g>
        <path class="cls-1" d="M38.19,0h32.63c5.4,0,10.58,2.16,14.39,6l30.61,31.02h-31.72c-12.01,0-22.05,9.15-23.16,21.11l-20.16,214.81h-3.13l-30.4-37.83c-5.36-6.65-7.91-15.13-7.12-23.63L18.03,18.38C19,7.96,27.74,0,38.19,0Z"/>
        <path class="cls-1" d="M206.5,13.52l-45.11,111.55c-2.69,7.65-2.46,16.02.66,23.51l18.44,49h2.43l60.58-145.59c3.61-8.67,12.08-14.32,21.47-14.32h37.95l-31.07-31.66c-3.8-3.86-9-6.03-14.41-6.03h-31.84c-8.59,0-16.25,5.42-19.1,13.52Z"/>
        <path class="cls-1" d="M199.78,272.94h-18.43c-9.37,0-17.83-5.63-21.45-14.28l-50.58-128.23h-2.6l-8.47,92.85c-.37,4.3.11,8.64,1.41,12.75l33.76,74.69c2.67,8.41,10.48,14.13,19.3,14.13h6.62c7.74,0,14.8-4.41,18.2-11.37l22.26-40.56Z"/>
        <path class="cls-1" d="M332.66,272.9h-39.1c-12.06,0-22.13-9.23-23.17-21.24l-7.14-121.22h-2.79l-32.46,72.78c-1.76,4.21-2.63,8.75-2.54,13.32l8.5,88.49c.21,11.03,9.22,19.85,20.24,19.85h30.1c6.86,0,13.25-3.47,16.98-9.22l31.39-42.75Z"/>
      </g>
      <g>
        <path class="cls-1" d="M629.77,306.65v-46.12h9.05v9.49l-1.58,1.05c.58-2.05,1.73-3.94,3.43-5.67,1.7-1.73,3.72-3.13,6.06-4.22,2.34-1.08,4.74-1.62,7.2-1.62,3.51,0,6.44.69,8.78,2.06,2.34,1.38,4.1,3.47,5.27,6.28,1.17,2.81,1.76,6.35,1.76,10.63v28.11h-9.05v-27.5c0-2.64-.35-4.82-1.05-6.55-.7-1.73-1.79-2.99-3.25-3.78-1.46-.79-3.28-1.13-5.45-1.01-1.76,0-3.37.28-4.83.83-1.46.56-2.74,1.33-3.82,2.33-1.08,1-1.93,2.15-2.55,3.47-.61,1.32-.92,2.74-.92,4.26v27.94h-9.05Z"/>
        <path class="cls-1" d="M703.56,307.53c-4.74,0-8.95-1.01-12.61-3.03-3.66-2.02-6.53-4.79-8.61-8.3-2.08-3.51-3.12-7.56-3.12-12.12,0-3.63.58-6.94,1.76-9.93,1.17-2.99,2.8-5.58,4.88-7.78,2.08-2.2,4.57-3.89,7.47-5.1,2.9-1.2,6.05-1.8,9.44-1.8,2.99,0,5.77.57,8.34,1.71,2.58,1.14,4.82,2.71,6.72,4.7,1.9,1.99,3.37,4.35,4.39,7.07,1.02,2.72,1.51,5.7,1.45,8.92l-.09,3.86h-37.69l-2.02-7.2h31.89l-1.32,1.49v-2.11c-.18-1.93-.82-3.66-1.93-5.18-1.11-1.52-2.52-2.72-4.22-3.6-1.7-.88-3.54-1.32-5.53-1.32-3.16,0-5.83.6-7.99,1.8-2.17,1.2-3.81,2.96-4.92,5.27-1.11,2.31-1.67,5.17-1.67,8.57,0,3.22.67,6.02,2.02,8.39,1.35,2.37,3.25,4.2,5.71,5.49,2.46,1.29,5.3,1.93,8.52,1.93,2.28,0,4.41-.38,6.37-1.14,1.96-.76,4.09-2.14,6.37-4.13l4.57,6.41c-1.41,1.41-3.12,2.64-5.14,3.69-2.02,1.05-4.16,1.89-6.41,2.5-2.26.61-4.47.92-6.63.92Z"/>
        <path class="cls-1" d="M600.61,307.13c-4.74,0-8.95-1.01-12.61-3.03-3.66-2.02-6.53-4.79-8.61-8.3-2.08-3.51-3.12-7.56-3.12-12.12,0-3.63.58-6.94,1.76-9.93,1.17-2.99,2.8-5.58,4.88-7.78,2.08-2.2,4.57-3.89,7.47-5.1,2.9-1.2,6.05-1.8,9.44-1.8,2.99,0,5.77.57,8.34,1.71,2.58,1.14,4.82,2.71,6.72,4.7,1.9,1.99,3.37,4.35,4.39,7.07,1.02,2.72,1.51,5.7,1.45,8.92l-.09,3.86h-37.69l-2.02-7.2h31.89l-1.32,1.49v-2.11c-.18-1.93-.82-3.66-1.93-5.18-1.11-1.52-2.52-2.72-4.22-3.6-1.7-.88-3.54-1.32-5.53-1.32-3.16,0-5.83.6-7.99,1.8-2.17,1.2-3.81,2.96-4.92,5.27-1.11,2.31-1.67,5.17-1.67,8.57,0,3.22.67,6.02,2.02,8.39,1.35,2.37,3.25,4.2,5.71,5.49,2.46,1.29,5.3,1.93,8.52,1.93,2.28,0,4.41-.38,6.37-1.14,1.96-.76,4.09-2.14,6.37-4.13l4.57,6.41c-1.41,1.41-3.12,2.64-5.14,3.69-2.02,1.05-4.16,1.89-6.41,2.5-2.26.61-4.47.92-6.63.92Z"/>
        <path class="cls-1" d="M733.52,306.65v-46.12h9.14v14.5l-.88-3.51c.64-2.22,1.74-4.25,3.29-6.06,1.55-1.81,3.34-3.25,5.36-4.3,2.02-1.05,4.11-1.58,6.28-1.58,1,0,1.95.09,2.86.26.91.18,1.62.38,2.15.61l-2.37,9.84c-.7-.29-1.48-.54-2.33-.75-.85-.2-1.68-.31-2.5-.31-1.58,0-3.09.31-4.52.92-1.44.61-2.69,1.46-3.78,2.55-1.08,1.08-1.95,2.34-2.59,3.78-.65,1.44-.97,3-.97,4.7v25.48h-9.14Z"/>
        <path class="cls-1" d="M788.25,326.85c-3.28,0-6.55-.51-9.79-1.54-3.25-1.03-5.87-2.36-7.86-4l3.34-7.03c1.17.88,2.55,1.65,4.13,2.33,1.58.67,3.25,1.2,5.01,1.58,1.76.38,3.48.57,5.18.57,3.22,0,5.91-.53,8.08-1.58,2.17-1.05,3.81-2.61,4.92-4.66,1.11-2.05,1.67-4.6,1.67-7.64v-8.87l.97.61c-.29,1.82-1.25,3.56-2.86,5.23-1.61,1.67-3.62,3.03-6.02,4.08-2.4,1.05-4.86,1.58-7.38,1.58-4.39,0-8.3-1.04-11.73-3.12-3.43-2.08-6.14-4.92-8.13-8.52-1.99-3.6-2.99-7.71-2.99-12.34s.98-8.74,2.94-12.34c1.96-3.6,4.66-6.44,8.08-8.52,3.43-2.08,7.28-3.12,11.55-3.12,1.76,0,3.45.22,5.1.66,1.64.44,3.16,1.05,4.57,1.85,1.41.79,2.66,1.66,3.78,2.59,1.11.94,2.02,1.93,2.72,2.99.7,1.05,1.14,2.05,1.32,2.99l-1.93.7v-10.81h9.05v43.31c0,3.69-.54,6.95-1.63,9.79-1.08,2.84-2.65,5.24-4.7,7.2-2.05,1.96-4.54,3.45-7.47,4.48-2.93,1.02-6.24,1.54-9.93,1.54ZM788.6,299.18c2.87,0,5.42-.67,7.64-2.02,2.23-1.35,3.95-3.19,5.18-5.53,1.23-2.34,1.85-5.04,1.85-8.08s-.63-5.75-1.89-8.13c-1.26-2.37-2.99-4.23-5.18-5.58-2.2-1.35-4.73-2.02-7.6-2.02s-5.32.69-7.51,2.06c-2.2,1.38-3.92,3.25-5.18,5.62-1.26,2.37-1.89,5.05-1.89,8.04s.63,5.67,1.89,8.04c1.26,2.37,2.99,4.23,5.18,5.58,2.2,1.35,4.7,2.02,7.51,2.02Z"/>
        <path class="cls-1" d="M830.5,250.34c-1.93,0-3.43-.5-4.48-1.49-1.05-1-1.58-2.4-1.58-4.22,0-1.7.54-3.08,1.63-4.13,1.08-1.05,2.56-1.58,4.44-1.58s3.43.5,4.48,1.49c1.05,1,1.58,2.4,1.58,4.22,0,1.7-.54,3.07-1.62,4.13-1.08,1.05-2.56,1.58-4.44,1.58ZM826.11,306.65v-46.12h9.05v46.12h-9.05Z"/>
        <path class="cls-1" d="M866.79,307.53c-3.81,0-7.28-1.05-10.41-3.16-3.13-2.11-5.64-4.98-7.51-8.61-1.87-3.63-2.81-7.73-2.81-12.3s.95-8.74,2.86-12.34c1.9-3.6,4.48-6.43,7.73-8.48,3.25-2.05,6.9-3.07,10.94-3.07,2.4,0,4.6.35,6.59,1.05,1.99.7,3.73,1.69,5.23,2.94,1.49,1.26,2.72,2.71,3.69,4.35.97,1.64,1.57,3.4,1.8,5.27l-2.02-.7v-11.95h9.14v46.12h-9.14v-10.98l2.11-.62c-.35,1.58-1.07,3.12-2.15,4.61-1.08,1.49-2.46,2.83-4.13,4-1.67,1.17-3.51,2.11-5.54,2.81-2.02.7-4.14,1.05-6.37,1.05ZM869.16,299.18c2.75,0,5.18-.67,7.29-2.02,2.11-1.35,3.76-3.21,4.96-5.58,1.2-2.37,1.8-5.08,1.8-8.13s-.6-5.65-1.8-7.99c-1.2-2.34-2.86-4.19-4.96-5.54-2.11-1.35-4.54-2.02-7.29-2.02s-5.08.67-7.16,2.02c-2.08,1.35-3.72,3.19-4.92,5.54-1.2,2.34-1.8,5.01-1.8,7.99s.6,5.75,1.8,8.13c1.2,2.37,2.84,4.23,4.92,5.58,2.08,1.35,4.47,2.02,7.16,2.02Z"/>
      </g>
    </g>
  </g>
</svg>
